<svg width="22" height="22" viewBox="0 0 22 22" fill="none" xmlns="http://www.w3.org/2000/svg">
<path d="M11 20C15.9706 20 20 15.9706 20 11C20 6.02944 15.9706 2 11 2C6.02944 2 2 6.02944 2 11C2 15.9706 6.02944 20 11 20Z" stroke="black" stroke-width="1.5" stroke-linecap="round" stroke-linejoin="round"/>
<path d="M8.09009 8C8.57552 6.62004 9.98547 5.79141 11.4273 6.03871C12.8691 6.28602 13.9223 7.53715 13.9201 9C13.9201 11 10.9201 12 10.9201 12" stroke="black" stroke-width="1.5" stroke-linecap="round" stroke-linejoin="round"/>
<path d="M11 16.5C11.2761 16.5 11.5 16.2761 11.5 16C11.5 15.7239 11.2761 15.5 11 15.5C10.7239 15.5 10.5 15.7239 10.5 16C10.5 16.2761 10.7239 16.5 11 16.5Z" stroke="black"/>
</svg>
