<svg width="48" height="48" viewBox="0 0 48 48" fill="none" xmlns="http://www.w3.org/2000/svg">
<path d="M43.324 5.64199C37.732 0.0499902 23.326 -0.50401 10.248 10.844C-1.974 21.45 -1.78 34.214 7.74 41.226C16.626 47.77 28.824 48.83 38.122 38.714C49.418 26.426 48.92 11.234 43.324 5.64199Z" fill="black"/>
<path d="M16.208 29.288C16.1026 29.394 15.9773 29.478 15.8394 29.5354C15.7014 29.5928 15.5534 29.6223 15.404 29.6223C15.2546 29.6223 15.1066 29.5928 14.9686 29.5354C14.8307 29.478 14.7054 29.394 14.6 29.288H14.598L9.538 24.23C9.32953 24.0154 9.21381 23.7274 9.21581 23.4282C9.21781 23.1289 9.33736 22.8425 9.54868 22.6307C9.76 22.4188 10.0461 22.2986 10.3453 22.2958C10.6445 22.2931 10.9328 22.4081 11.148 22.616L15.404 26.87L27.776 14.5C27.993 14.3046 28.2767 14.1999 28.5687 14.2075C28.8606 14.2152 29.1385 14.3346 29.345 14.5411C29.5515 14.7475 29.6708 15.0254 29.6785 15.3174C29.6861 15.6093 29.5814 15.893 29.386 16.11L16.208 29.288ZM25.998 25.448C25.7827 25.4476 25.5724 25.3835 25.3934 25.2638C25.2144 25.1442 25.0748 24.9743 24.9921 24.7756C24.9094 24.5768 24.8873 24.358 24.9285 24.1467C24.9698 23.9354 25.0726 23.7411 25.224 23.588L33.318 15.494C33.5237 15.2896 33.802 15.1748 34.092 15.1748C34.382 15.1748 34.6603 15.2896 34.866 15.494C35.0704 15.6997 35.1852 15.978 35.1852 16.268C35.1852 16.5581 35.0704 16.8363 34.866 17.042L26.774 25.136C26.6716 25.2366 26.5503 25.3159 26.4171 25.3694C26.2839 25.423 26.1415 25.4497 25.998 25.448ZM35.926 27.92L32.74 31.102C32.6388 31.2042 32.5184 31.2852 32.3858 31.3406C32.2531 31.3959 32.1108 31.4244 31.967 31.4244C31.8232 31.4244 31.6809 31.3959 31.5482 31.3406C31.4156 31.2852 31.2952 31.2042 31.194 31.102C30.9895 30.8963 30.8748 30.6181 30.8748 30.328C30.8748 30.038 30.9895 29.7597 31.194 29.554L34.382 26.366C34.4791 26.2542 34.5978 26.1633 34.7311 26.0988C34.8643 26.0343 35.0093 25.9974 35.1572 25.9906C35.3051 25.9837 35.4528 26.0069 35.5915 26.0588C35.7301 26.1107 35.8568 26.1902 35.9638 26.2925C36.0709 26.3948 36.156 26.5177 36.2141 26.6539C36.2723 26.7901 36.3021 26.9366 36.302 27.0846C36.3018 27.2327 36.2716 27.3792 36.2131 27.5152C36.1547 27.6512 36.0693 27.774 35.962 27.876L35.93 27.91L35.926 27.92ZM35.926 21.95L29.756 28.118C29.5461 28.3002 29.2749 28.3959 28.9972 28.386C28.7195 28.3761 28.4558 28.2613 28.2595 28.0646C28.0631 27.868 27.9486 27.6042 27.939 27.3265C27.9295 27.0487 28.0256 26.7777 28.208 26.568L34.382 20.394C34.5919 20.2119 34.8631 20.1161 35.1408 20.126C35.4185 20.1359 35.6822 20.2508 35.8785 20.4474C36.0749 20.6441 36.1894 20.9078 36.199 21.1856C36.2085 21.4633 36.1124 21.7344 35.93 21.944L35.926 21.95Z" fill="white"/>
</svg>
